<svg width="40" height="40" viewBox="0 0 40 40" fill="none" xmlns="http://www.w3.org/2000/svg">
<path d="M19.7072 9C23.1231 9 26.1753 10.557 28.1929 13H30.6635C28.3534 9.39169 24.3096 7 19.7072 7C12.664 7 6.92899 12.6011 6.71346 19.592L4.41421 17.2927L3 18.707L7.70711 23.4141L12.4142 18.707L11 17.2927L8.71514 19.5776C8.93712 13.6982 13.7735 9 19.7072 9Z" fill="#D70E2A"/>
<path d="M11.2218 27H8.75113C11.0613 30.6083 15.1051 33 19.7075 33C26.7506 33 32.4855 27.3991 32.7012 20.4083L35.0001 22.7073L36.4144 21.293L31.7073 16.5859L27.0002 21.293L28.4144 22.7073L30.6995 20.4221C30.4777 26.3016 25.6413 31 19.7075 31C16.2916 31 13.2394 29.443 11.2218 27Z" fill="#D70E2A"/>
</svg>
