<svg width="40" height="40" viewBox="0 0 40 40" fill="none" xmlns="http://www.w3.org/2000/svg">
<g opacity="0.5">
<path fill-rule="evenodd" clip-rule="evenodd" d="M17.4774 6.85695C18.6014 4.91983 21.3988 4.91984 22.5228 6.85695L25.9651 12.7892C26.2824 13.336 26.8308 13.7092 27.4559 13.8036L33.172 14.6669C35.6636 15.0433 36.5376 18.1892 34.5971 19.7969L30.4323 23.2474C29.8477 23.7317 29.5729 24.4957 29.7149 25.2414L30.8815 31.368C31.3385 33.7679 28.8191 35.6326 26.6574 34.4944L20.9707 31.5001C20.3632 31.1802 19.637 31.1802 19.0295 31.5001L13.3427 34.4944C11.181 35.6326 8.66166 33.7679 9.11866 31.368L10.2853 25.2414C10.4273 24.4957 10.1524 23.7317 9.56786 23.2474L5.40303 19.7969C3.46255 18.1892 4.33656 15.0433 6.82822 14.6669L12.5443 13.8036C13.1694 13.7092 13.7178 13.336 14.0351 12.7892L17.4774 6.85695ZM20.3605 8.11166C20.1999 7.83493 19.8003 7.83493 19.6397 8.11166L16.1974 14.0439C15.4994 15.2469 14.2929 16.0678 12.9177 16.2755L7.20158 17.1389C6.84562 17.1927 6.72077 17.6421 6.99798 17.8717L11.1628 21.3223C12.4489 22.3878 13.0536 24.0684 12.7412 25.709L11.5745 31.8357C11.5092 32.1785 11.8692 32.4449 12.178 32.2823L17.8647 29.288C19.2013 28.5842 20.7989 28.5842 22.1355 29.288L27.8222 32.2823C28.131 32.4449 28.4909 32.1785 28.4256 31.8357L27.259 25.709C26.9466 24.0684 27.5513 22.3878 28.8374 21.3223L33.0022 17.8717C33.2794 17.6421 33.1545 17.1927 32.7986 17.1389L27.0825 16.2756C25.7073 16.0678 24.5008 15.2469 23.8027 14.0439L20.3605 8.11166Z" fill="#00B1F0"/>
</g>
</svg>
