<svg width="40" height="40" viewBox="0 0 40 40" fill="none" xmlns="http://www.w3.org/2000/svg">
<path d="M21.4419 4.9937C20.7996 3.88679 19.2011 3.88678 18.5588 4.9937L14.0354 12.7892C13.7181 13.336 13.1697 13.7092 12.5446 13.8036L4.06737 15.084C2.64356 15.299 2.14413 17.0967 3.25297 18.0154L9.56812 23.2474C10.1527 23.7317 10.4276 24.4957 10.2856 25.2414L8.63361 33.9166C8.37247 35.288 9.81212 36.3535 11.0474 35.7031L19.0297 31.5001C19.6373 31.1802 20.3634 31.1802 20.971 31.5001L28.9533 35.7031C30.1886 36.3535 31.6282 35.288 31.3671 33.9166L29.7151 25.2414C29.5731 24.4957 29.848 23.7317 30.4326 23.2474L36.7477 18.0154C37.8565 17.0967 37.3571 15.299 35.9333 15.084L27.4561 13.8036C26.831 13.7092 26.2826 13.336 25.9653 12.7892L21.4419 4.9937Z" fill="#00B1F0"/>
</svg>
