<svg width="40" height="40" fill="none" xmlns="http://www.w3.org/2000/svg"><path d="M19.707 9c3.416 0 6.468 1.557 8.486 4h2.47a12.99 12.99 0 00-10.956-6C12.664 7 6.93 12.601 6.713 19.592l-2.299-2.3L3 18.708l4.707 4.707 4.707-4.707L11 17.293l-2.285 2.285C8.937 13.698 13.774 9 19.707 9zm-8.485 18h-2.47a12.99 12.99 0 0010.955 6c7.044 0 12.779-5.6 12.994-12.592l2.3 2.3 1.413-1.415-4.707-4.707L27 21.293l1.414 1.414 2.285-2.285C30.479 26.302 25.642 31 19.707 31a10.978 10.978 0 01-8.485-4z" fill="#D70E2A"/></svg>