<svg width="92" height="31" fill="none" xmlns="http://www.w3.org/2000/svg"><path fill-rule="evenodd" clip-rule="evenodd" d="M29.195 4.259l1.456-2.61C23.19-.673 3.967-2.176.509 8.872c-3.738 11.947 14.065 13.226 21.842 9.813.832-.366 1.712-.632 2.622-.632h1.822l1.488-1.682h6.525l.416 1.682h9.563l2.079-5.047 3.118 5.047h5.82l3.95-10.094h-5.612l-1.871 5.047-3.326-5.047h-5.821l-3.118 7.57-1.663-7.78H31.69c-5.74 5.115-13.535 11.507-20.175 7.632-1.194-.697-2.04-1.788-2.276-3.426C8.218 4.879 17.323 1.61 29.195 4.259zm5.114 10.008h-4.074l3.118-3.49.956 3.49zm22.766 3.785l3.95-10.094h9.979c4.063.196 7.767 7.316-.963 9.656-1.411.379-2.89.438-4.35.438h-8.616zm7.972-7.498l-1.733 4.626h3.802a4.46 4.46 0 001.156-.126c3.7-.985 2.318-4.29.63-4.5h-3.855z" fill="#00B1F0"/><path d="M75.577 7.958h4.494l1.95 4.416 4.251-4.416H92L80.982 19.104H75.37l3.42-3.543-3.212-7.603z" fill="#00B1F0"/><rect y="22.361" width="86.313" height="2.033" rx="1.016" fill="#AFE0F4"/><rect x="3.011" y="26.426" width="41.149" height="1.525" rx=".762" fill="#00B1F0"/><rect x="6.022" y="29.984" width="20.073" height="1.016" rx=".508" fill="#AFE0F4"/></svg>