<svg width="40" height="40" fill="none" xmlns="http://www.w3.org/2000/svg"><path fill-rule="evenodd" clip-rule="evenodd" d="M17.477 6.857c1.124-1.937 3.922-1.937 5.046 0l3.442 5.932c.317.547.866.92 1.49 1.015l5.717.863c2.492.376 3.366 3.522 1.425 5.13l-4.165 3.45a2.083 2.083 0 00-.717 1.994l1.166 6.127c.457 2.4-2.062 4.265-4.224 3.126L20.971 31.5a2.083 2.083 0 00-1.942 0l-5.686 2.994c-2.162 1.139-4.681-.726-4.224-3.126l1.166-6.127a2.083 2.083 0 00-.717-1.994l-4.165-3.45c-1.94-1.608-1.066-4.754 1.425-5.13l5.716-.863a2.083 2.083 0 001.491-1.015l3.442-5.932zm2.883 1.255a.417.417 0 00-.72 0l-3.443 5.932a4.583 4.583 0 01-3.28 2.232l-5.715.863a.417.417 0 00-.204.733l4.165 3.45a4.583 4.583 0 011.578 4.387l-1.166 6.127a.417.417 0 00.603.446l5.687-2.994a4.583 4.583 0 014.27 0l5.687 2.994a.417.417 0 00.604-.446l-1.167-6.127a4.583 4.583 0 011.578-4.387l4.165-3.45a.417.417 0 00-.203-.733l-5.716-.863a4.584 4.584 0 01-3.28-2.232L20.36 8.112z" fill="#00B1F0" opacity=".5"/></svg>