<svg width="40" height="40" fill="none" xmlns="http://www.w3.org/2000/svg"><path d="M21.442 4.994a1.667 1.667 0 00-2.883 0l-4.524 7.795c-.317.547-.865.92-1.49 1.015l-8.478 1.28c-1.423.215-1.923 2.013-.814 2.931l6.315 5.232c.585.485.86 1.249.718 1.994l-1.652 8.676c-.262 1.371 1.178 2.436 2.413 1.786L19.03 31.5a2.083 2.083 0 011.941 0l7.982 4.203c1.236.65 2.675-.415 2.414-1.786l-1.652-8.676a2.083 2.083 0 01.718-1.994l6.315-5.232c1.108-.918.61-2.716-.815-2.931l-8.477-1.28a2.083 2.083 0 01-1.49-1.015l-4.524-7.795z" fill="#00B1F0"/></svg>